<svg id="Capa_1" enable-background="new 0 0 512 512" height="512" viewBox="0 0 512 512" width="512" xmlns="http://www.w3.org/2000/svg"><path fill="#504028" d="m507.606 150.474-84.853-84.854c-2.813-2.814-6.628-4.394-10.606-4.394s-7.794 1.58-10.607 4.394l-75.015 75.015c-6.743 6.751-11.452 18.128-11.452 27.666v29.602h-118.147v-29.602c0-9.538-4.709-20.915-11.458-27.673l-75.008-75.008c-5.857-5.857-15.356-5.857-21.213 0l-84.853 84.854c-2.814 2.812-4.394 6.628-4.394 10.606s1.581 7.795 4.394 10.606l42.533 42.532v99.268c0 12.022 4.682 23.323 13.18 31.819l60.205 60.206c8.499 8.498 19.799 13.179 31.818 13.179 8.745 0 17.104-2.489 24.285-7.112 7.803 17.432 17.855 30.955 19.637 33.291 2.837 3.721 7.249 5.904 11.928 5.904h96.04c4.679 0 9.09-2.184 11.928-5.904 1.786-2.342 11.879-15.923 19.69-33.412 7.082 4.508 15.364 6.934 24.072 6.933 12.139-.001 23.991-4.89 32.517-13.416l59.665-59.666c8.501-8.498 13.183-19.799 13.183-31.821v-99.268l42.533-42.532c2.813-2.811 4.394-6.628 4.394-10.606s-1.582-7.795-4.396-10.607zm-185.474 113.162c7.999 12.522 22.012 20.851 37.942 20.851 5.257 0 10.307-.906 15-2.57v12.932l-37.807 37.806c-4.319-9.921-9.72-17.33-14.294-23.597-5.19-7.11-7.899-11.011-7.899-15.107-.001-8.518 2.968-19.406 7.058-30.315zm-185.206 18.28c4.693 1.664 9.743 2.57 15 2.57 15.936 0 29.953-8.334 37.951-20.865 4.085 10.902 7.049 21.79 7.049 30.328 0 4.098-2.708 7.998-7.899 15.109-4.574 6.266-9.975 13.674-14.294 23.594l-37.807-37.806zm25.811 102.38c-2.834 2.834-6.601 4.395-10.607 4.395s-7.773-1.56-10.605-4.392l-60.206-60.207c-2.833-2.831-4.392-6.598-4.392-10.604v-105.48c0-3.979-1.581-7.794-4.394-10.607l-36.32-36.321 63.64-63.641 64.391 64.391c1.124 1.166 2.653 4.858 2.683 6.471v71.186c0 8.271-6.729 15-15 15s-15-6.729-15-15v-30c0-8.284-6.716-15-15-15s-15 6.716-15 15v91.574c0 3.979 1.58 7.794 4.394 10.608l51.418 51.416c2.367 2.366 3.759 5.336 4.21 8.418-.008.589-.021 1.172-.021 1.771 0 .781.028 1.564.058 2.348-.411 3.173-1.816 6.241-4.249 8.674zm133.501 36.477h-80.494c-7.101-10.709-17.511-29.414-18.702-44.699.101-1.908.072-3.82-.068-5.727.645-22.162 8.587-33.058 16.284-43.602 6.407-8.776 13.669-18.724 13.669-32.797 0-21.035-10.747-47.428-19.873-66.047h97.892c-9.126 18.619-19.873 45.012-19.873 66.047 0 14.072 7.262 24.02 13.668 32.796 7.745 10.609 15.741 21.571 16.298 44.013-.059.949-.1 1.902-.1 2.861 0 .656.02 1.311.048 1.963-1.007 15.296-11.57 34.331-18.749 45.192zm143.229-223.374c-2.813 2.813-4.394 6.628-4.394 10.607v105.48c0 4.007-1.56 7.773-4.394 10.607l-59.666 59.667c-2.942 2.942-7.064 4.63-11.306 4.63-4.004.001-7.688-1.478-10.374-4.164-2.457-2.457-3.952-5.617-4.307-9.026.02-.643.047-1.285.047-1.926 0-.487-.012-.96-.017-1.439.393-3.33 1.87-6.414 4.277-8.821l51.347-51.345c2.813-2.814 4.393-6.629 4.393-10.608v-91.574c0-8.284-6.716-15-15-15s-15 6.716-15 15v30c0 8.271-6.729 15-15 15s-15-6.729-15-15v-71.179c.03-1.619 1.559-5.312 2.671-6.467l64.402-64.401 63.64 63.641z"/></svg>